<?xml version="1.0" encoding="UTF-8"?>
<svg width="512pt" height="512pt" version="1.1" viewBox="0 0 512 512" xmlns="http://www.w3.org/2000/svg">
 <path d="m66.559 256c0-104.65 84.789-189.44 189.44-189.44s189.44 84.789 189.44 189.44-84.789 189.44-189.44 189.44-189.44-84.789-189.44-189.44zm189.44-163.02c-90.008 0-163.02 73.012-163.02 163.02s73.012 163.02 163.02 163.02 163.02-73.012 163.02-163.02-73.012-163.02-163.02-163.02zm9.832 198.35 13.516-114.79c1.6367-13.926-9.3203-26.215-23.348-26.215s-24.984 12.289-23.348 26.215l13.516 114.79c0.61328 5.0195 4.8125 8.7031 9.832 8.7031s9.2148-3.6875 9.832-8.7031zm-9.832 70.449c9.7266 0 17.613-7.8867 17.613-17.613 0-9.7266-7.8867-17.613-17.613-17.613s-17.613 7.8867-17.613 17.613c0 9.7305 7.8867 17.613 17.613 17.613z" fill-rule="evenodd"/>
</svg>
